<?xml version="1.0" encoding="UTF-8" standalone="no"?>
<!-- Created with Inkscape (http://www.inkscape.org/) -->

<svg
   width="25mm"
   height="25mm"
   viewBox="0 0 25.000001 25"
   version="1.1"
   id="svg5"
   xml:space="preserve"
   inkscape:version="1.2.2 (b0a8486541, 2022-12-01)"
   sodipodi:docname="logo-bike.svg"
   xmlns:inkscape="http://www.inkscape.org/namespaces/inkscape"
   xmlns:sodipodi="http://sodipodi.sourceforge.net/DTD/sodipodi-0.dtd"
   xmlns="http://www.w3.org/2000/svg"
   xmlns:svg="http://www.w3.org/2000/svg"><sodipodi:namedview
     id="namedview7"
     pagecolor="#ffffff"
     bordercolor="#999999"
     borderopacity="1"
     inkscape:showpageshadow="0"
     inkscape:pageopacity="0"
     inkscape:pagecheckerboard="true"
     inkscape:deskcolor="#d1d1d1"
     inkscape:document-units="mm"
     showgrid="false"
     showguides="true"
     inkscape:zoom="13.455443"
     inkscape:cx="17.204933"
     inkscape:cy="28.05556"
     inkscape:window-width="3840"
     inkscape:window-height="2108"
     inkscape:window-x="2880"
     inkscape:window-y="765"
     inkscape:window-maximized="1"
     inkscape:current-layer="layer1"><sodipodi:guide
       position="16.125957,9.5567318"
       orientation="0,-1"
       id="guide7229"
       inkscape:locked="false" /></sodipodi:namedview><defs
     id="defs2" /><g
     inkscape:label="Layer 1"
     inkscape:groupmode="layer"
     id="layer1"
     transform="translate(-39.305914,-117.08983)"><g
       id="g8925"
       transform="translate(0.52916667,4.7625002)"><circle
         style="fill:#e3dc1e;fill-opacity:1;stroke-width:0.264583"
         id="path6479"
         cx="58.774693"
         cy="127.53853"
         r="4.5423069" /><circle
         style="fill:#e3dc1e;fill-opacity:1;stroke-width:0.264583"
         id="path6479-3"
         cx="43.848221"
         cy="127.61719"
         r="4.5423069" /><path
         style="fill:#e3dc1e;fill-opacity:1;stroke:#000000;stroke-width:0.933237;stroke-linecap:round;stroke-dasharray:none;stroke-opacity:1"
         d="m 53.744577,119.38189 5.203308,8.46748"
         id="path8020" /><path
         style="fill:#e3dc1e;fill-opacity:1;stroke:#000000;stroke-width:0.930088;stroke-linecap:round;stroke-dasharray:none;stroke-opacity:1"
         d="m 54.918408,121.60231 -3.613698,5.97335"
         id="path8022" /><path
         style="fill:#e3dc1e;fill-opacity:1;stroke:#000000;stroke-width:0.964999;stroke-linecap:round;stroke-dasharray:none;stroke-opacity:1"
         d="m 51.341829,127.65651 -7.66883,0.0983"
         id="path8024"
         sodipodi:nodetypes="cc" /><path
         style="fill:none;fill-opacity:1;stroke:#000000;stroke-width:0.964999;stroke-linecap:round;stroke-linejoin:round;stroke-dasharray:none;stroke-opacity:1"
         d="m 43.810646,127.72533 3.598451,-6.45951 3.952397,6.27271"
         id="path8026"
         sodipodi:nodetypes="ccc" /><path
         style="fill:none;fill-opacity:1;stroke:#000000;stroke-width:0.964999;stroke-linecap:round;stroke-linejoin:round;stroke-dasharray:none;stroke-opacity:1"
         d="m 45.355861,121.18997 4.560615,-0.0556"
         id="path8817" /><path
         style="fill:none;fill-opacity:1;stroke:#000000;stroke-width:0.964999;stroke-linecap:round;stroke-linejoin:round;stroke-dasharray:none;stroke-opacity:1"
         d="m 52.544392,117.57485 c 0.07209,-0.007 0.138829,0.002 0.208563,0.0139 0.0098,0.002 0.04474,-0.005 0.05562,0 0.07916,0.0396 0.176736,0.0755 0.264181,0.0973 0.03016,0.008 0.05485,0.0295 0.08343,0.0417 0.09665,0.0414 0.18991,0.0949 0.278088,0.13904 0.04233,0.0212 0.06613,0.08 0.09733,0.11123 0.0073,0.007 0.02048,0.007 0.02781,0.0139 0.0033,0.003 -0.0033,0.0106 0,0.0139 0.0066,0.007 0.02125,-0.007 0.02781,0 0.0073,0.007 0.0082,0.0192 0.01389,0.0278 0.02474,0.0371 0.06467,0.0598 0.08343,0.0973 0.01101,0.022 0.0419,0.035 0.05562,0.0556 0.01016,0.0152 0.05058,0.0923 0.05562,0.0973 0.0033,0.003 0.01244,-0.004 0.01389,0 0.0044,0.0132 -0.0027,0.0281 0,0.0417 0.01087,0.0543 0.03811,0.11431 0.05562,0.16685 0.01109,0.0333 -0.0085,0.0772 0,0.11124 0.03117,0.12468 0.02837,0.31868 -0.02781,0.43103 -0.0038,0.008 -0.01151,0.10885 -0.01389,0.11123 -0.0033,0.003 -0.01064,-0.003 -0.01392,0 -0.01172,0.0117 -0.04387,0.10164 -0.05562,0.12514 -0.0042,0.008 0.0042,0.0195 0,0.0278 -0.01193,0.0238 -0.03226,0.0412 -0.04171,0.0695 -0.0029,0.009 0.0066,0.0213 0,0.0278 -0.0033,0.003 -0.01064,-0.003 -0.01389,0 -0.0033,0.003 0.0021,0.01 0,0.0139 -0.0083,0.0167 -0.03337,0.025 -0.04171,0.0417 -0.0042,0.008 0.0042,0.0195 0,0.0278 -0.01445,0.0289 -0.04064,0.0535 -0.05561,0.0834 -0.008,0.0161 -0.03258,0.0743 -0.04172,0.0834 -0.0033,0.003 -0.01064,-0.003 -0.01389,0 -0.0033,0.003 0.0021,0.01 0,0.0139 -0.003,0.006 -0.0817,0.096 -0.08343,0.0973 -0.05741,0.0431 -0.130196,0.0885 -0.180755,0.13904 -0.0073,0.007 -0.0066,0.0205 -0.01389,0.0278 -0.0078,0.008 -0.06006,0.0509 -0.06952,0.0556 -0.0131,0.007 -0.02915,0.006 -0.04171,0.0139 -0.03824,0.0229 -0.06016,0.0726 -0.09733,0.0973 -0.02241,0.0149 -0.04743,0.027 -0.06952,0.0417 -0.03376,0.0225 -0.07572,0.0239 -0.111233,0.0417 -0.01495,0.007 -0.02619,0.0216 -0.04171,0.0278 -0.0086,0.003 -0.01902,-0.003 -0.02781,0 -0.0085,0.003 -0.03323,0.025 -0.04171,0.0278 -0.04827,0.0161 -0.08942,0.0358 -0.139041,0.0556 -0.02368,0.0277 -0.05668,0.005 -0.08343,0.0139 -0.04129,0.0138 -0.08493,0.0561 -0.12514,0.0695 -0.04453,0.0148 -0.09239,0.006 -0.139044,0.0139 -0.03983,0.007 -0.09012,0.0242 -0.125137,0.0417 -0.0059,0.003 -0.0077,0.0118 -0.01389,0.0139 -0.01336,0.004 -0.04227,-0.007 -0.05562,0 -0.04074,0.0204 -0.09228,0.0161 -0.139044,0.0278 -0.02183,0.005 -0.03378,0.0224 -0.05562,0.0278 -0.06063,0.0152 -0.119663,0.0382 -0.180758,0.0556 -0.01783,0.005 -0.03903,-0.008 -0.05562,0 -0.0141,0.007 0.0167,0.0139 -0.02781,0.0139"
         id="path8915" /></g></g></svg>
